<?xml version="1.0" encoding="UTF-8"?>
<svg id="Livello_1" xmlns="http://www.w3.org/2000/svg" version="1.1" viewBox="0 0 341.8 354.4">
  <!-- Generator: Adobe Illustrator 29.0.0, SVG Export Plug-In . SVG Version: 2.1.0 Build 186)  -->
  <defs>
    <style>
      .st0 {
        fill: #c7beb4;
      }
    </style>
  </defs>
  <g id="Raggruppa_96">
    <g id="Raggruppa_95">
      <path id="Tracciato_105" class="st0" d="M117.3,145.3c-21.7-40.7-40-75.1-59.2-111.3C76.4,22.5,93.3,11.8,112.1,0c19.3,35.6,38.3,70.6,59.3,109.2C191.6,71.9,210.4,37.4,230.7.2c18,11.1,35.5,21.8,54.3,33.4-19.3,36.3-38,71.4-58.4,109.8h115.2v66.2h-116.2c20.5,38.5,39.2,73.4,59.1,110.8-17.7,11.1-34.9,22-53.8,34-19.8-36.2-38.8-70.9-59.4-108.4-20.6,37.5-39.7,72.2-59.5,108.2-18.7-11.6-35.6-22.1-53.9-33.4l58.6-110.3H0v-65.1h117.3Z"/>
    </g>
  </g>
  <g id="Raggruppa_961" data-name="Raggruppa_96">
    <g id="Raggruppa_951" data-name="Raggruppa_95">
      <path id="Tracciato_1051" data-name="Tracciato_105" class="st0" d="M117.4,145.9c-21.7-40.7-40-75.1-59.2-111.3C76.5,23.1,93.4,12.4,112.2.6c19.3,35.6,38.3,70.6,59.3,109.2,20.2-37.3,39-71.8,59.3-109,18,11.1,35.5,21.8,54.3,33.4-19.3,36.3-38,71.4-58.4,109.8h115.2v66.2h-116.2c20.5,38.5,39.2,73.4,59.1,110.8-17.7,11.1-34.9,22-53.8,34-19.8-36.2-38.8-70.9-59.4-108.4-20.6,37.5-39.7,72.2-59.5,108.2-18.7-11.6-35.6-22.1-53.9-33.4l58.6-110.3H.1v-65.1h117.3Z"/>
    </g>
  </g>
</svg>