<?xml version="1.0" encoding="UTF-8"?>
<svg id="Livello_1" xmlns="http://www.w3.org/2000/svg" version="1.1" viewBox="0 0 373.5 372.2">
  <!-- Generator: Adobe Illustrator 29.0.0, SVG Export Plug-In . SVG Version: 2.1.0 Build 186)  -->
  <defs>
    <style>
      .st0 {
        fill: #eedac6;
      }
    </style>
  </defs>
  <g id="Raggruppa_118">
    <g id="Raggruppa_100">
      <path id="Tracciato_109" class="st0" d="M257.1,303c-24.8-.5-46-22.6-44.9-47,1.1-24.7,23.4-45.1,48.1-43.9,24,1.2,43.6,21.7,43.5,45.8,0,25-21.3,45.6-46.6,45.1"/>
    </g>
    <g id="Raggruppa_101">
      <path id="Tracciato_110" class="st0" d="M142.7,46.6C142.2,19.2,159.9.4,186.7,0c25.8-.4,45.4,19.1,45.5,45.3,0,25.3-17.7,44-42.9,45.1-26.3,1.2-46.1-17.5-46.6-43.9"/>
    </g>
    <g id="Raggruppa_102">
      <path id="Tracciato_111" class="st0" d="M232.4,187.2c-.2,26.2-19,44.8-45.4,44.8-26.2,0-45.1-19.2-44.9-45.4.3-26.7,18.9-45,45.5-44.7,26.8.2,44.9,18.6,44.7,45.4"/>
    </g>
    <g id="Raggruppa_103">
      <path id="Tracciato_112" class="st0" d="M257.4,71.4c26-.4,46.4,19.3,46.3,44.6,0,24.5-19.1,43.8-43.7,44.5-26,.7-47.3-18.5-47.9-43.1-.6-25.1,19.6-45.6,45.3-45.9"/>
    </g>
    <g id="Raggruppa_104">
      <path id="Tracciato_113" class="st0" d="M91.8,188.4c-.8,25-22.1,44.4-47.9,43.5C19.9,231.1-.2,210.5,0,186.9c.2-25.6,20.3-44.8,46.7-44.5,25.9.3,45.8,20.7,45.1,46"/>
    </g>
    <g id="Raggruppa_105">
      <path id="Tracciato_114" class="st0" d="M186.7,372.2c-27.7-.2-44.7-17.8-44-45.6.6-25.9,18.2-43.1,44.1-43.3,27-.2,45.4,18,45.4,44.8,0,27.2-17.6,44.3-45.5,44.1"/>
    </g>
    <g id="Raggruppa_106">
      <path id="Tracciato_115" class="st0" d="M328.7,232c-26.1,0-45.6-19.7-45.3-45.6.3-26.5,19.3-44.7,46.2-44.3,25.6.4,43.5,18.4,43.9,44,.4,26.7-18.4,45.9-44.7,45.9"/>
    </g>
    <g id="Raggruppa_107">
      <path id="Tracciato_116" class="st0" d="M161,257.1c0,26.2-19.3,46.2-44.8,46.1-25.2,0-44.7-20.6-44.4-46.5.3-24.8,19.1-44,43.6-44.6,25.6-.6,45.5,19,45.6,45"/>
    </g>
    <g id="Raggruppa_108">
      <path id="Tracciato_117" class="st0" d="M117.6,160.5c-27.2.5-45.6-17.2-45.8-43.9-.2-27,17.9-45.3,44.7-45.3,26,0,43.7,17.1,44.5,42.8.8,27.3-16.7,46-43.4,46.4"/>
    </g>
    <g id="Raggruppa_109">
      <path id="Tracciato_118" class="st0" d="M257.1,303c-24.8-.5-46-22.6-44.9-47,1.1-24.7,23.4-45.1,48.1-43.9,24,1.2,43.6,21.7,43.5,45.8,0,25-21.3,45.6-46.6,45.1"/>
    </g>
    <g id="Raggruppa_110">
      <path id="Tracciato_119" class="st0" d="M142.7,46.6C142.2,19.2,159.9.4,186.7,0c25.8-.4,45.4,19.1,45.5,45.3,0,25.3-17.7,44-42.9,45.1-26.3,1.2-46.1-17.5-46.6-43.9"/>
    </g>
    <g id="Raggruppa_111">
      <path id="Tracciato_120" class="st0" d="M232.4,187.2c-.2,26.2-19,44.8-45.4,44.8-26.2,0-45.1-19.2-44.9-45.4.3-26.7,18.9-45,45.5-44.7,26.8.2,44.9,18.6,44.7,45.4"/>
    </g>
    <g id="Raggruppa_112">
      <path id="Tracciato_121" class="st0" d="M257.4,71.4c26-.4,46.4,19.3,46.3,44.6,0,24.5-19.1,43.8-43.7,44.5-26,.7-47.3-18.5-47.9-43.1-.6-25.1,19.6-45.6,45.3-45.9"/>
    </g>
    <g id="Raggruppa_113">
      <path id="Tracciato_122" class="st0" d="M91.8,188.4c-.8,25-22.1,44.4-47.9,43.5C19.9,231.1-.2,210.5,0,186.9c.2-25.6,20.3-44.8,46.7-44.5,25.9.3,45.8,20.7,45.1,46"/>
    </g>
    <g id="Raggruppa_114">
      <path id="Tracciato_123" class="st0" d="M186.7,372.2c-27.7-.2-44.7-17.8-44-45.6.6-25.9,18.2-43.1,44.1-43.3,27-.2,45.4,18,45.4,44.8,0,27.2-17.6,44.3-45.5,44.1"/>
    </g>
    <g id="Raggruppa_115">
      <path id="Tracciato_124" class="st0" d="M328.7,232c-26.1,0-45.6-19.7-45.3-45.6.3-26.5,19.3-44.7,46.2-44.3,25.6.4,43.5,18.4,43.9,44,.4,26.7-18.4,45.9-44.7,45.9"/>
    </g>
    <g id="Raggruppa_116">
      <path id="Tracciato_125" class="st0" d="M161,257.1c0,26.2-19.3,46.2-44.8,46.1-25.2,0-44.7-20.6-44.4-46.5.3-24.8,19.1-44,43.6-44.6,25.6-.6,45.5,19,45.6,45"/>
    </g>
    <g id="Raggruppa_117">
      <path id="Tracciato_126" class="st0" d="M117.6,160.5c-27.2.5-45.6-17.2-45.8-43.9-.2-27,17.9-45.3,44.7-45.3,26,0,43.7,17.1,44.5,42.8.8,27.3-16.7,46-43.4,46.4"/>
    </g>
  </g>
</svg>